Normalized EMG Linear Envelopes
nRows=165
nColumns=4

endheader
time	 med_gas_r	  soleus_r	 tib_ant_r	
7.43702	  0.076582	  0.067687	  0.021083	
7.49952	  0.062168	  0.058091	  0.019556	
7.56202	  0.066006	  0.055113	  0.018401	
7.62451	  0.110427	  0.067798	  0.019125	
7.68701	  0.214925	  0.106601	  0.024051	
7.7495	  0.376724	  0.175956	  0.034858	
7.812	  0.555364	  0.265977	  0.050655	
7.8745	  0.693396	  0.358580	  0.067742	
7.93699	  0.764116	  0.442516	  0.082125	
7.99949	  0.784554	  0.518794	  0.092556	
8.06198	  0.775832	  0.591333	  0.100372	
8.12448	  0.736072	  0.650807	  0.106406	
8.18698	  0.667221	  0.674847	  0.109692	
8.24947	  0.599199	  0.653995	  0.109388	
8.31197	  0.562853	  0.605362	  0.106598	
8.37446	  0.560867	  0.552923	  0.103924	
8.43696	  0.575976	  0.511492	  0.103320	
8.49946	  0.588550	  0.492029	  0.104492	
8.56195	  0.588967	  0.501607	  0.105724	
8.62445	  0.581425	  0.532341	  0.105681	
8.68694	  0.571356	  0.561604	  0.104143	
8.74944	  0.559477	  0.568968	  0.101813	
8.81194	  0.551258	  0.552155	  0.099620	
8.87443	  0.554311	  0.526234	  0.097987	
8.93693	  0.566289	  0.507721	  0.096679	
8.99942	  0.578352	  0.500970	  0.094923	
9.06192	  0.583472	  0.501429	  0.091684	
9.12442	  0.574030	  0.505012	  0.086604	
9.18691	  0.548528	  0.507057	  0.080939	
9.24941	  0.524026	  0.502043	  0.077181	
9.3119	  0.519776	  0.490917	  0.077030	
9.3744	  0.534421	  0.478812	  0.079464	
9.4369	  0.557215	  0.467748	  0.081896	
9.49939	  0.579713	  0.459355	  0.083056	
9.56189	  0.586822	  0.454957	  0.082781	
9.62438	  0.568235	  0.451333	  0.080339	
9.68688	  0.536410	  0.447070	  0.075797	
9.74938	  0.509389	  0.447824	  0.071521	
9.81187	  0.491382	  0.457719	  0.069852	
9.87437	  0.479539	  0.471721	  0.070548	
9.93686	  0.472404	  0.479482	  0.071811	
9.99936	  0.469613	  0.475658	  0.072469	
10.0619	  0.473750	  0.467118	  0.072459	
10.1244	  0.491073	  0.465424	  0.072191	
10.1868	  0.521079	  0.472916	  0.072124	
10.2493	  0.551669	  0.484430	  0.072892	
10.3118	  0.573356	  0.497771	  0.074921	
10.3743	  0.586496	  0.513997	  0.077440	
10.4368	  0.592363	  0.532367	  0.078837	
10.4993	  0.589758	  0.548723	  0.078428	
10.5618	  0.578633	  0.557353	  0.077031	
10.6243	  0.563799	  0.556378	  0.075544	
10.6868	  0.556871	  0.550532	  0.074026	
10.7493	  0.570363	  0.544755	  0.072894	
10.8118	  0.607160	  0.537974	  0.073845	
10.8743	  0.653839	  0.528135	  0.077907	
10.9368	  0.687526	  0.518832	  0.083266	
10.9993	  0.692074	  0.514753	  0.086939	
11.0618	  0.662727	  0.514215	  0.087956	
11.1243	  0.606407	  0.513414	  0.087442	
11.1868	  0.542696	  0.513483	  0.086542	
11.2493	  0.489102	  0.513952	  0.085255	
11.3118	  0.452206	  0.509037	  0.082816	
11.3743	  0.436239	  0.498729	  0.078826	
11.4368	  0.439611	  0.488558	  0.074031	
11.4993	  0.450163	  0.477923	  0.070105	
11.5618	  0.456829	  0.465479	  0.068308	
11.6243	  0.456161	  0.459565	  0.068135	
11.6868	  0.452289	  0.469144	  0.067913	
11.7492	  0.457944	  0.492121	  0.066853	
11.8117	  0.482485	  0.519453	  0.065689	
11.8742	  0.512823	  0.541504	  0.065181	
11.9367	  0.520640	  0.548448	  0.064939	
11.9992	  0.495239	  0.533575	  0.064134	
12.0617	  0.453245	  0.498939	  0.062561	
12.1242	  0.415538	  0.457258	  0.060779	
12.1867	  0.391175	  0.426357	  0.059734	
12.2492	  0.379294	  0.416689	  0.059937	
12.3117	  0.376554	  0.426114	  0.061010	
12.3742	  0.383237	  0.448575	  0.062245	
12.4367	  0.404473	  0.479346	  0.062992	
12.4992	  0.445083	  0.509419	  0.062643	
12.5617	  0.495912	  0.526171	  0.060989	
12.6242	  0.531080	  0.526206	  0.058553	
12.6867	  0.535088	  0.520986	  0.056772	
12.7492	  0.523517	  0.524136	  0.057599	
12.8117	  0.522711	  0.536733	  0.061475	
12.8742	  0.539743	  0.548871	  0.066105	
12.9367	  0.561010	  0.552590	  0.068950	
12.9992	  0.571102	  0.547475	  0.069841	
13.0617	  0.564453	  0.535133	  0.069713	
13.1242	  0.542880	  0.517590	  0.068675	
13.1867	  0.509618	  0.501999	  0.066523	
13.2492	  0.467707	  0.497416	  0.063529	
13.3116	  0.424784	  0.504686	  0.060533	
13.3741	  0.394104	  0.516050	  0.058807	
13.4366	  0.382808	  0.524686	  0.059078	
13.4991	  0.383292	  0.526618	  0.060809	
13.5616	  0.381531	  0.516779	  0.062859	
13.6241	  0.372976	  0.495850	  0.064479	
13.6866	  0.370892	  0.476361	  0.065723	
13.7491	  0.395647	  0.472682	  0.067006	
13.8116	  0.450954	  0.489695	  0.068002	
13.8741	  0.514817	  0.519811	  0.067364	
13.9366	  0.557617	  0.543482	  0.064130	
13.9991	  0.564749	  0.537567	  0.059154	
14.0616	  0.540428	  0.494496	  0.054500	
14.1241	  0.498356	  0.435370	  0.051868	
14.1866	  0.455403	  0.394169	  0.052082	
14.2491	  0.426518	  0.386744	  0.054985	
14.3116	  0.415705	  0.402418	  0.059060	
14.3741	  0.415382	  0.419078	  0.062062	
14.4366	  0.419080	  0.420126	  0.062790	
14.4991	  0.428085	  0.405186	  0.061877	
14.5616	  0.443851	  0.387502	  0.060706	
14.6241	  0.463149	  0.379710	  0.060301	
14.6866	  0.480344	  0.384395	  0.061172	
14.7491	  0.488860	  0.395884	  0.063184	
14.8116	  0.486573	  0.408471	  0.065465	
14.874	  0.480859	  0.422140	  0.066726	
14.9365	  0.481052	  0.437719	  0.065962	
14.999	  0.489376	  0.452018	  0.063405	
15.0615	  0.501490	  0.463345	  0.060506	
15.124	  0.509455	  0.473269	  0.058602	
15.1865	  0.506231	  0.479610	  0.057989	
15.249	  0.490028	  0.476361	  0.058209	
15.3115	  0.461741	  0.461826	  0.058414	
15.374	  0.426054	  0.441858	  0.057690	
15.4365	  0.397163	  0.423867	  0.055926	
15.499	  0.388501	  0.410253	  0.054139	
15.5615	  0.397197	  0.400519	  0.053416	
15.624	  0.411384	  0.395348	  0.053921	
15.6865	  0.425376	  0.392863	  0.054867	
15.749	  0.437397	  0.387341	  0.054940	
15.8115	  0.443425	  0.377694	  0.053476	
15.874	  0.442096	  0.370108	  0.051618	
15.9365	  0.437136	  0.369772	  0.051441	
15.999	  0.431698	  0.376401	  0.053764	
16.0615	  0.428122	  0.387205	  0.057346	
16.124	  0.429787	  0.399280	  0.060136	
16.1865	  0.433786	  0.407627	  0.060521	
16.249	  0.428650	  0.404881	  0.057513	
16.3115	  0.407288	  0.390311	  0.051552	
16.374	  0.375271	  0.373690	  0.045070	
16.4364	  0.343112	  0.359841	  0.040675	
16.4989	  0.318100	  0.340002	  0.039604	
16.5614	  0.303800	  0.307411	  0.041855	
16.6239	  0.297443	  0.266847	  0.045971	
16.6864	  0.288963	  0.227078	  0.049553	
16.7489	  0.272441	  0.196389	  0.051188	
16.8114	  0.255099	  0.178824	  0.051252	
16.8739	  0.246541	  0.169350	  0.050734	
16.9364	  0.243982	  0.159457	  0.049565	
16.9989	  0.236895	  0.144657	  0.046846	
17.0614	  0.221859	  0.125938	  0.042783	
17.1239	  0.203216	  0.109097	  0.038798	
17.1864	  0.183549	  0.099474	  0.036054	
17.2489	  0.163347	  0.096087	  0.035165	
17.3114	  0.146389	  0.093881	  0.035880	
17.3739	  0.137631	  0.089778	  0.036764	
17.4364	  0.137238	  0.084351	  0.036728	
17.4989	  0.140979	  0.079195	  0.035853	
17.5614	  0.145467	  0.074553	  0.033960	
17.6239	  0.150029	  0.069608	  0.030369	
17.6864	  0.154656	  0.064017	  0.025338	
